<svg xmlns="http://www.w3.org/2000/svg" width="70" height="46" fill="none" xmlns:v="https://vecta.io/nano"><path d="M70 12.24c-.002-1.174-.351-2.377-1.147-3.386L63.43 2.012A5.25 5.25 0 0 0 61.483.504C60.747.17 59.952.001 59.146 0c-.954 0-1.936.242-2.81.779l-5.288 3.244c-.192.119-.497.247-.855.333s-.766.136-1.165.135c-.62.005-1.209-.126-1.526-.284l-5.178-2.472c-.973-.46-2.012-.635-3.043-.638-.742 0-1.483.095-2.201.29s-1.412.49-2.047.929l-.224.155-1.644-.807c-1.16-.557-2.433-.757-3.719-.765-1.162.005-2.322.174-3.402.622l-3.527 1.483c-.435.19-1.267.346-2.089.34-.821.006-1.653-.15-2.087-.34l-3.53-1.484c-.758-.317-1.546-.448-2.32-.448-.889.001-1.763.173-2.584.499s-1.591.817-2.22 1.51L1.26 10.179C.42 11.106-.002 12.278 0 13.428-.003 14.8.596 16.18 1.742 17.145l5.345 4.493-2.265 2.389.003.002c-.917.951-1.377 2.181-1.375 3.393a4.9 4.9 0 0 0 1.56 3.581l.577.54a4.98 4.98 0 0 0 1.381.896c-.168.504-.27 1.024-.27 1.544-.002 1.298.523 2.613 1.56 3.582l.577.541a5.09 5.09 0 0 0 3.478 1.363c.389.001.779-.049 1.162-.139a4.86 4.86 0 0 0 1.147 1.621l.579.543c.973.911 2.238 1.365 3.478 1.363.665.001 1.335-.129 1.961-.388.248.461.571.893.976 1.271l.58.543c.971.91 2.236 1.365 3.478 1.363 1.321.002 2.662-.513 3.649-1.53l1.968-2.025 2.881 2.595-.011-.009c.966.883 2.21 1.323 3.431 1.321a5.09 5.09 0 0 0 3.693-1.575l.544-.575c.27-.285.485-.599.674-.925l.51.463c.966.881 2.209 1.318 3.428 1.317 1.345.002 2.705-.529 3.696-1.575l.544-.574c.545-.575.903-1.253 1.116-1.962l.462.042a5.08 5.08 0 0 0 3.696-1.576l.542-.573.002-.002a4.89 4.89 0 0 0 1.343-3.366l-.016-.33a5.03 5.03 0 0 0 2.251-1.368l.544-.575a4.89 4.89 0 0 0 1.345-3.366c.002-1.258-.497-2.527-1.47-3.486l-.547-.613 8.642-9.422c.971-1.065 1.405-2.404 1.408-3.718zM36.264 6.122l1.009-.699c.188-.132.488-.272.845-.369a4.5 4.5 0 0 1 1.165-.151c.55-.004 1.06.112 1.347.254l5.178 2.472c1.025.483 2.124.663 3.222.667a8.92 8.92 0 0 0 2.099-.247c.685-.168 1.353-.42 1.975-.8l5.288-3.244c.205-.126.465-.2.755-.2a1.74 1.74 0 0 1 .709.152c.215.098.389.234.513.392l5.423 6.841c.192.237.332.628.33 1.05.003.474-.176.928-.41 1.174l-.818.891-1.306-1.28a.59.59 0 0 0-.823 0c-.227.223-.227.585 0 .807l1.348 1.323-1.771 1.932-2.562-2.514a.59.59 0 0 0-.823 0c-.227.223-.227.585 0 .807l2.605 2.556-1.772 1.932-2.072-2.034a.59.59 0 0 0-.823 0c-.227.223-.227.584 0 .807l2.117 2.077-1.729 1.884-3.319-3.027c-1.342-1.221-3.493-2.951-4.976-4.002l-5.952-4.206a6.14 6.14 0 0 0-1.893-.884c-.661-.185-1.342-.273-2.025-.274-1.157.005-2.33.247-3.389.868l-2.149 1.274a1.42 1.42 0 0 1-.721.186 1.69 1.69 0 0 1-.71-.158c-.216-.101-.391-.241-.514-.405l-.475-.629-.002-.002c-.154-.206-.227-.437-.229-.685.003-.368.167-.715.468-.937l4.866-3.601zM8.158 28.824l-.047-.045-.003-.002-.002-.001a1.88 1.88 0 0 1-.597-1.378 1.87 1.87 0 0 1 .532-1.311l5.594-5.754a1.95 1.95 0 0 1 1.405-.587c.486.001.962.174 1.336.521l.046.043.003.003c.397.371.596.868.597 1.378-.002.479-.178.945-.534 1.312l-5.59 5.752a1.95 1.95 0 0 1-1.406.587c-.487-.001-.962-.172-1.335-.519zm7.3 5.245l-1.189 1.223c-.378.39-.885.586-1.405.587-.488-.001-.963-.173-1.336-.522l-.596-.556a1.87 1.87 0 0 1-.598-1.378 1.87 1.87 0 0 1 .532-1.311l7.465-7.682c.378-.39.885-.584 1.405-.586.488.002.963.173 1.336.522l.596.557a1.88 1.88 0 0 1 .597 1.378c0 .478-.176.945-.532 1.312l-1.187 1.221c-.027.027-.059.046-.086.073l-4.919 5.059c-.032.033-.053.071-.083.104zm7.038 2.701l-1.885 1.941c-.378.39-.887.585-1.406.587-.486-.002-.963-.174-1.336-.523l-.58-.543a1.87 1.87 0 0 1-.598-1.379c.002-.434.153-.855.445-1.203l5.097-5.246a1.95 1.95 0 0 1 1.311-.508c.488.001.963.173 1.338.523l.579.542c.397.371.596.868.597 1.378a1.87 1.87 0 0 1-.514 1.288c-.008.009-3.004 3.087-3.004 3.087-.016.017-.029.037-.045.056zm7.538 1.106l-2.977 3.064c-.378.39-.886.585-1.405.587-.488-.002-.963-.174-1.338-.523l-.024-.023c-.399-.373-.597-.87-.598-1.38a1.87 1.87 0 0 1 .488-1.256l3.051-3.144a1.95 1.95 0 0 1 1.375-.562 1.95 1.95 0 0 1 1.338.522l.026.025c.397.371.596.868.597 1.377a1.88 1.88 0 0 1-.534 1.312zm27.422-7.344l-.259.273a1.95 1.95 0 0 1-2.663.156l-7.404-6.737a1.18 1.18 0 0 0-1.643.059c-.437.461-.41 1.184.06 1.613l8.007 7.287c.407.373.614.878.615 1.396-.002.47-.17.929-.515 1.295l-.558.589c-.38.4-.895.603-1.422.604a1.95 1.95 0 0 1-1.318-.505l-8.005-7.297a1.18 1.18 0 0 0-1.645.059c-.437.462-.409 1.185.062 1.613l7.014 6.393a1.88 1.88 0 0 1 .597 1.375c-.002.469-.171.928-.515 1.292l-.561.591c-.38.401-.895.604-1.426.605-.479-.001-.947-.167-1.319-.504l-7.311-6.653a1.18 1.18 0 0 0-1.643.061 1.13 1.13 0 0 0 .062 1.613l3.719 3.388a1.88 1.88 0 0 1 .62 1.4 1.84 1.84 0 0 1-.504 1.273c-.374.394-.882.593-1.406.594-.48-.002-.952-.168-1.326-.508L32.594 38.1c.199-.495.299-1.018.299-1.538 0-1.1-.442-2.21-1.318-3.029l-.006-.006-.026-.024.006.006c-.823-.771-1.891-1.155-2.943-1.154-.074 0-.15.017-.224.021 0-.013.003-.026.003-.04.002-1.1-.441-2.21-1.318-3.029l-.579-.543c-.617-.576-1.368-.935-2.149-1.08.161-.45.251-.919.251-1.386a4.14 4.14 0 0 0-1.318-3.031l-.596-.557c-.823-.77-1.889-1.154-2.942-1.152-.133 0-.265.026-.397.039-.024-1.068-.458-2.138-1.308-2.934l-.049-.047c-.823-.771-1.891-1.155-2.943-1.154a4.3 4.3 0 0 0-3.088 1.294l-1.047 1.078-6.638-5.582a1.07 1.07 0 0 1-.388-.827 1.06 1.06 0 0 1 .28-.721l6.429-7.097c.16-.18.439-.377.788-.515a3.06 3.06 0 0 1 1.118-.217c.319-.002.599.058.793.141l3.53 1.484c1.133.468 2.369.642 3.614.648 1.245-.006 2.481-.18 3.616-.648l3.528-1.483c.41-.18 1.146-.32 1.874-.314.735-.008 1.46.143 1.861.314l-2.246 1.661c-1.319.978-2.014 2.478-2.012 3.977a4.9 4.9 0 0 0 .994 2.955l-.002-.002.475.629a5.23 5.23 0 0 0 1.958 1.572c.747.349 1.557.527 2.381.528.924 0 1.872-.23 2.725-.734l2.149-1.275c.285-.175.82-.323 1.384-.319a3.57 3.57 0 0 1 .959.128 2.27 2.27 0 0 1 .694.313l5.952 4.206c1.286.907 3.443 2.642 4.604 3.701l2.013 1.836.009-.009 4.005 3.653a1.88 1.88 0 0 1 .617 1.396c0 .472-.17.931-.513 1.296z" fill="#0c8543"/></svg>