<svg xmlns="http://www.w3.org/2000/svg" xmlns:xlink="http://www.w3.org/1999/xlink" width="70" height="70" fill="none" xmlns:v="https://vecta.io/nano"><g fill="#0c8543"><use xlink:href="#B"/><path d="M45.889 27.278h7.778c.644 0 1.167-.523 1.167-1.167s-.523-1.167-1.167-1.167h-7.778c-.644 0-1.167.523-1.167 1.167s.523 1.167 1.167 1.167z"/><use xlink:href="#B" x="14.778"/><path fill-rule="evenodd" d="M3.111 9h63.778A3.12 3.12 0 0 1 70 12.111v5.444a3.12 3.12 0 0 1-3.111 3.111h-.778V58A3.12 3.12 0 0 1 63 61.111H7A3.12 3.12 0 0 1 3.889 58V20.667h-.778A3.12 3.12 0 0 1 0 17.556v-5.444A3.12 3.12 0 0 1 3.111 9zm44.722 30.722v-3.889H22.167v3.889h25.667zm0 2.333H22.167v3.889h25.667v-3.889zm0 6.222H22.167v8.944h25.667v-8.944zm13.351-2.357l1.038 1.038V20.667H7.778v36.556h12.056V35.833h-3.5c-.644 0-1.167-.523-1.167-1.167s.523-1.167 1.167-1.167h37.333c.644 0 1.167.523 1.167 1.167s-.523 1.167-1.167 1.167h-3.5v5.048.008.008 16.326h4.47l-1.176-1.177c-.228-.228-.228-.598 0-.825s.597-.228.825 0l2 2.001h3.751l-3.859-3.86c-.228-.228-.228-.597 0-.825s.597-.228.825 0l4.685 4.685h.535v-3.215l-4.713-4.712c-.228-.228-.228-.597 0-.825s.597-.228.825 0l3.888 3.887v-3.749l-1.864-1.863c-.228-.228-.228-.597 0-.825s.597-.228.825 0zM3.889 16.778h62.222v-3.889H3.889v3.889z"/></g><defs ><path id="B" d="M24.111 27.278h-7.778c-.644 0-1.167-.523-1.167-1.167s.523-1.167 1.167-1.167h7.778c.644 0 1.167.523 1.167 1.167s-.523 1.167-1.167 1.167z"/></defs></svg>