<svg xmlns="http://www.w3.org/2000/svg" width="70" height="70" fill="#0c8543" xmlns:v="https://vecta.io/nano"><path fill-rule="evenodd" d="M41.265 48.933c-.429.799-1.063 1.43-1.798 1.89-1.085.673-2.367 1.009-3.746 1.144v1.225c0 .644-.523 1.167-1.167 1.167s-1.167-.523-1.167-1.167V52.01c-1.698-.13-3.153-.681-4.239-1.6-1.255-1.052-1.962-2.598-1.955-4.265a1.09 1.09 0 0 1 1.089-1.089 1.09 1.09 0 0 1 1.089 1.089c.008 1.081.408 1.939 1.183 2.603.643.544 1.598.934 2.833 1.059v-8.237l-.067-.017-.105-.026-.325-.083c-1.209-.324-2.416-.696-3.461-1.379-.595-.39-1.137-.895-1.535-1.545-.457-.742-.702-1.653-.699-2.674.001-1.283.455-2.759 1.603-3.937 1.015-1.047 2.559-1.781 4.591-1.928v-1.129c0-.644.523-1.167 1.167-1.167s1.167.523 1.167 1.167v1.192c1.129.129 2.132.396 2.987.813 1.224.593 2.158 1.502 2.684 2.609.352.736.522 1.548.522 2.38a1.09 1.09 0 0 1-1.089 1.089 1.09 1.09 0 0 1-1.089-1.089 3.3 3.3 0 0 0-.308-1.441c-.203-.423-.502-.799-.93-1.132-.617-.481-1.535-.865-2.776-1.04v7.679l.103.027.411.11c1.224.346 2.447.774 3.494 1.542.595.439 1.128 1 1.512 1.7.441.8.675 1.762.673 2.854.001 1.048-.218 1.992-.65 2.788zM29.862 37.544c.299.407.76.751 1.395 1.051.596.286 1.332.513 2.132.725v-7.153c-.628.058-1.16.182-1.604.351-.621.237-1.079.555-1.43.913-.698.71-.982 1.637-.982 2.414.005.799.192 1.289.488 1.699zm9.355 6.603c-.317-.478-.78-.861-1.409-1.195-.585-.314-1.304-.561-2.086-.782v7.601c.672-.08 1.286-.211 1.799-.407.888-.342 1.471-.81 1.828-1.465.238-.442.387-1.001.388-1.755-.003-.914-.207-1.517-.52-1.998z"/><path d="M17.154 34.534c-.591-.257-1.278.015-1.534.606-.314.725-.588 1.466-.814 2.221-.184.617.166 1.268.784 1.452s1.268-.166 1.452-.784c.198-.663.438-1.318.718-1.962.257-.59-.015-1.277-.606-1.534zm.683-3.345a26.62 26.62 0 0 1 7.539-7.172c.544-.345 1.265-.182 1.61.364s.18 1.265-.364 1.608c-2.628 1.659-5.052 3.926-6.871 6.535-.369.529-1.096.658-1.625.289s-.658-1.096-.289-1.625z"/><path fill-rule="evenodd" d="M62.556 43.082c0 3.231-.596 6.813-1.56 9.064a8.46 8.46 0 0 1 3.116 6.561c0 4.686-3.807 8.484-8.503 8.484a8.49 8.49 0 0 1-6.635-3.186c-4.209 2.021-9.142 3.186-14.418 3.186s-10.209-1.165-14.418-3.186a8.49 8.49 0 0 1-6.635 3.186C8.806 67.192 5 63.394 5 58.708c0-2.645 1.214-5.006 3.116-6.563-.964-2.249-1.561-5.833-1.56-9.064C6.559 30.776 17.1 19.235 27.77 15.536l-.033-.091c-.035-.095-.07-.19-.092-.287l-2.51-11.044C24.838 2.811 25.382 2 26.395 2c.285 0 .605.063.954.198l4.304 1.656c.798.307 1.851.46 2.903.46s2.105-.153 2.904-.46l4.303-1.656c.35-.135.671-.198.954-.198 1.013-.001 1.557.811 1.26 2.115l-2.51 11.044c-.023.102-.06.201-.097.3l-.029.078c10.67 3.698 21.213 15.24 21.213 27.546zM31.416 14.211l.115.092h6.048l.115-.092 1.564-6.884-.403.155c-1.549.596-3.194.72-4.3.72s-2.752-.124-4.298-.719l-.405-.156 1.564 6.884zM13.501 63.304c1.406 0 2.719-.632 3.604-1.733.208-.258.446-.481.7-.673a28.1 28.1 0 0 1-2.903-2.325c-1.438-1.319-2.676-2.712-3.679-4.111-.187.251-.395.488-.645.693-1.074.879-1.69 2.175-1.69 3.553a4.61 4.61 0 0 0 4.613 4.595zm7.803-3.002c.174.054.347.118.516.199 3.82 1.833 8.224 2.802 12.735 2.802.912 0 1.815-.05 2.714-.128l-.222-1.594c-.044-.319.179-.614.498-.659s.614.178.659.498l.228 1.633c.864-.108 1.72-.248 2.562-.427l-.417-2.276c-.058-.317.152-.621.47-.679s.621.152.678.47l.405 2.214a28.49 28.49 0 0 0 2.571-.782l-.825-2.241c-.111-.303.044-.637.346-.749s.637.044.749.346l.819 2.223.278-.108.03-.012a25.98 25.98 0 0 0 .999-.443c.325-.158.653-.328.987-.515l-1.825-2.998c-.168-.274-.081-.633.194-.801s.634-.081.802.194l1.828 3.001c.747-.477 1.503-1.026 2.252-1.636l-2.641-3.535c-.193-.257-.14-.623.117-.816s.624-.14.817.117l2.595 3.475c.037-.033.073-.065.11-.096l.142-.125c2.623-2.395 4.485-5.08 5.31-7.273.533-1.769.883-4.254.883-6.497 0-5.864-2.976-12.139-8.164-17.215-4.84-4.734-10.95-7.675-15.948-7.675s-11.107 2.941-15.946 7.674c-5.188 5.077-8.164 11.351-8.165 17.215-.001 2.721.513 5.819 1.246 7.533.042.098.072.199.102.299l.027.087c.985 1.874 2.579 3.953 4.659 5.851 1.588 1.456 3.253 2.617 4.825 3.45zm30.7 1.269c.885 1.101 2.198 1.733 3.604 1.733 2.545 0 4.615-2.061 4.615-4.595a4.58 4.58 0 0 0-1.69-3.553c-.288-.236-.525-.51-.729-.805-1.017 1.436-2.278 2.868-3.754 4.222-.925.845-1.873 1.603-2.826 2.27a3.88 3.88 0 0 1 .781.729z"/></svg>