<svg xmlns="http://www.w3.org/2000/svg" width="70" height="59" fill="none" xmlns:v="https://vecta.io/nano"><path fill-rule="evenodd" d="M65.732 0H3.415C1.537 0 0 1.4 0 3.111v41.222c0 1.711 1.537 3.111 3.415 3.111h29.178l-2.229 5.347.001-.003c-.112.271-.192.576-.193.929a2.18 2.18 0 0 0 .184.878c.193.453.594.873 1.053 1.11.458.243.932.323 1.337.323a3.27 3.27 0 0 0 .529-.044l-.002.001 2.8-.457 1.759 2.035h.001a2.8 2.8 0 0 0 .805.643c.343.183.792.318 1.28.317a2.66 2.66 0 0 0 1.629-.553c.409-.322.641-.692.787-1.038h0l1.864-4.473 1.864 4.473h0c.145.345.379.716.787 1.038a2.66 2.66 0 0 0 1.629.553 2.76 2.76 0 0 0 1.28-.317 2.79 2.79 0 0 0 .805-.643h.001l1.759-2.035 2.8.457-.002-.001a3.25 3.25 0 0 0 .529.044c.271 0 .569-.035.877-.131a2.51 2.51 0 0 0 1.256-.866 2.17 2.17 0 0 0 .441-1.314 2.4 2.4 0 0 0-.193-.928l-2.228-5.346h9.926c1.878 0 3.415-1.4 3.415-3.111V3.112C69.146 1.4 67.61 0 65.732 0zm-5.394 43.556l-3.415-3.111h3.635l3.416 3.111h-3.636zm-16.374 0c-4.471 0-8.11-3.315-8.11-7.389s3.638-7.389 8.11-7.389 8.11 3.315 8.11 7.389-3.638 7.389-8.11 7.389zm0-18.667c-6.839 0-12.378 5.049-12.378 11.278 0 .664.075 1.312.196 1.944H10.244V9.333h48.659v28.778h-2.757c.121-.632.196-1.28.196-1.944 0-6.228-5.539-11.278-12.378-11.278zm17.5 14.73v-3.507l3.415 3.111v3.506l-3.415-3.11zm0-5.156v-3.298l3.415 3.112v3.297l-3.415-3.111zM4.268 43.556V3.889h60.61v28.738l-3.415-3.112V7.778c0-.428-.384-.778-.854-.778H8.537c-.47 0-.854.35-.854.778v31.889c0 .428.384.778.854.778h23.976c.459 1.02 1.077 1.964 1.827 2.808l-.126.303H4.268zm35.111 9.514l-.219-.254c-.405-.459-.853-.726-1.315-.921a4.03 4.03 0 0 0-1.533-.309 3.57 3.57 0 0 0-.585.049l.012-.002-.35.057 2.401-5.757c1.222.642 2.572 1.098 4.011 1.33l-2.421 5.808zm13.291-1.435a3.48 3.48 0 0 0-.585-.048 4.03 4.03 0 0 0-1.533.308c-.463.195-.91.462-1.315.921l-.219.254-2.451-5.88c1.426-.278 2.756-.786 3.953-1.47l2.488 5.969-.349-.057.012.003zm1.229-8.762c.563-.691 1.047-1.435 1.427-2.234l3.201 2.917h-4.343l-.284-.683zM18.781 15.944h23.902c.708 0 1.281.523 1.281 1.167s-.573 1.167-1.281 1.167H18.781c-.708 0-1.28-.523-1.28-1.167s.573-1.167 1.281-1.167zm0 7.778h9.39c.708 0 1.281.523 1.281 1.167s-.573 1.167-1.28 1.167h-9.39c-.708 0-1.28-.523-1.28-1.167s.573-1.167 1.281-1.167zm20.488 12.444c0-2.362 2.101-4.278 4.695-4.278s4.695 1.916 4.695 4.278-2.101 4.278-4.695 4.278-4.695-1.916-4.695-4.278zm2.561 0c0 1.073.958 1.944 2.134 1.944s2.134-.872 2.134-1.944-.958-1.944-2.134-1.944-2.134.872-2.134 1.944z" fill="#0c8543"/></svg>