<svg xmlns="http://www.w3.org/2000/svg" width="168" height="56" fill="none" xmlns:v="https://vecta.io/nano"><path d="M51.8 0h110.6a5.6 5.6 0 0 1 5.6 5.6v44.8a5.6 5.6 0 0 1-5.6 5.6H51.8V0z" fill="#0c8543"/><path d="M70.494 28a7.35 7.35 0 0 1 5.067 1.651 5.51 5.51 0 0 1 1.856 4.322 5.46 5.46 0 0 1-1.851 4.316 7.41 7.41 0 0 1-5.072 1.631h-3.153v4.148l2.003.385V46.7H61.6v-2.247l1.991-.385V30.646l-1.991-.379v-2.261h8.894V28zm-3.153 9.029h3.153a3.1 3.1 0 0 0 2.38-.854 3.05 3.05 0 0 0 .798-2.177 3.18 3.18 0 0 0-.798-2.227 3.05 3.05 0 0 0-2.38-.881h-3.153v6.139zM87.415 46.7c-.103-.232-.194-.47-.27-.713s-.136-.488-.179-.738a5.16 5.16 0 0 1-1.624 1.246 4.86 4.86 0 0 1-2.19.475c-1.184.062-2.346-.336-3.242-1.112a3.92 3.92 0 0 1-1.201-3.024 3.44 3.44 0 0 1 1.567-3.018c1.395-.799 2.994-1.169 4.598-1.065h1.914V37.39c.017-.285-.025-.571-.125-.838a2.05 2.05 0 0 0-.453-.716 2.38 2.38 0 0 0-1.708-.552 4.05 4.05 0 0 0-1.142.147 2.99 2.99 0 0 0-.809.353l-.245 1.483h-2.825l.013-3.08a10.52 10.52 0 0 1 2.356-1.169 8.54 8.54 0 0 1 2.897-.475c1.503-.071 2.985.373 4.2 1.26a4.31 4.31 0 0 1 1.611 3.602v5.74.603a4.3 4.3 0 0 0 .045.539l1.142.154V46.7h-4.327zm-3.249-2.505a3.25 3.25 0 0 0 1.54-.365 2.98 2.98 0 0 0 1.079-.918v-2.12h-1.912c-.653-.047-1.299.153-1.812.56a1.75 1.75 0 0 0-.616 1.343 1.39 1.39 0 0 0 .456 1.105 1.86 1.86 0 0 0 1.264.396h0zm9.132.256l1.798-.385v-8.62l-1.991-.382v-2.261h5.484l.167 2.029a4.37 4.37 0 0 1 1.26-1.68 2.81 2.81 0 0 1 1.785-.603 4.65 4.65 0 0 1 .623.045 3.84 3.84 0 0 1 .546.109l-.398 3.416-1.54-.039a2.63 2.63 0 0 0-1.361.321c-.36.214-.646.532-.822.911v6.755l1.798.385V46.7h-7.349v-2.248zm16.632-15.053v3.403h2.441v2.633h-2.441v7.077c-.039.414.08.828.335 1.156.117.117.258.209.413.269a1.17 1.17 0 0 0 .486.078 6.15 6.15 0 0 0 .673-.029c.192-.021.409-.058.648-.109l.321 2.71a8.86 8.86 0 0 1-1.246.288 8.67 8.67 0 0 1-1.336.097 4.01 4.01 0 0 1-1.603-.224c-.514-.183-.984-.47-1.383-.841-.777-.947-1.152-2.161-1.043-3.381v-7.09h-2.044v-2.633h2.044V29.4l3.735-.001zm4.072 15.054l1.797-.385v-8.621l-1.991-.385V32.8h5.484l.167 1.991c.43-.679 1.015-1.247 1.708-1.656a4.43 4.43 0 0 1 2.273-.591 4.18 4.18 0 0 1 1.792.296 4.19 4.19 0 0 1 1.497 1.027c.885 1.193 1.305 2.668 1.182 4.148v6.049l1.797.385v2.25h-7.165v-2.247l1.606-.385V38.03c.071-.708-.129-1.417-.56-1.984-.23-.209-.5-.368-.794-.468a2.27 2.27 0 0 0-.914-.115c-.463-.008-.921.096-1.336.302a2.75 2.75 0 0 0-.988.854v7.449l1.516.385V46.7h-7.071v-2.247zm23.426 2.52a6.26 6.26 0 0 1-2.61-.443c-.828-.332-1.577-.838-2.194-1.483a6.89 6.89 0 0 1-1.797-4.9v-.514a7.6 7.6 0 0 1 1.702-5.099 5.64 5.64 0 0 1 2.052-1.526c.792-.345 1.651-.504 2.514-.465a5.62 5.62 0 0 1 4.366 1.7c1.087 1.272 1.643 2.914 1.554 4.585v2.043h-8.296l-.025.077c.035.837.36 1.636.918 2.261a2.86 2.86 0 0 0 1.011.685 2.85 2.85 0 0 0 1.204.201 7.22 7.22 0 0 0 2.068-.248 9.51 9.51 0 0 0 1.797-.79l1.015 2.311a7.38 7.38 0 0 1-2.229 1.138 9.48 9.48 0 0 1-3.05.463v.003zm-.335-11.533a1.96 1.96 0 0 0-1.643.796 4.14 4.14 0 0 0-.745 2.1l.039.064h4.598v-.335c.034-.681-.163-1.353-.56-1.907a2.01 2.01 0 0 0-1.687-.722l-.002.003zm7.98 9.016l1.798-.385v-8.624l-1.994-.382v-2.261h5.484l.167 2.029a4.36 4.36 0 0 1 1.26-1.68 2.81 2.81 0 0 1 1.785-.603 4.65 4.65 0 0 1 .623.045 3.84 3.84 0 0 1 .546.109l-.398 3.416-1.54-.039a2.63 2.63 0 0 0-1.361.321 2.08 2.08 0 0 0-.822.911v6.755l1.798.385V46.7h-7.349l.003-2.244zM52.5 55.3H5.6c-2.702 0-4.9-2.198-4.9-4.9V5.6C.7 2.898 2.898.7 5.6.7h46.9v54.6z" fill="#fff"/><path d="M5.6 1.4c-2.316 0-4.2 1.884-4.2 4.2v44.8c0 2.316 1.884 4.2 4.2 4.2h46.2V1.4H5.6zm0-1.4h47.6v56H5.6A5.6 5.6 0 0 1 0 50.4V5.6A5.6 5.6 0 0 1 5.6 0z" fill="#0c8543"/><rect x="1" y="1" width="166" height="54" rx="7" stroke="#fff" stroke-width="2"/></svg>