<svg xmlns="http://www.w3.org/2000/svg" xmlns:xlink="http://www.w3.org/1999/xlink" width="255" height="240" fill="none" xmlns:v="https://vecta.io/nano"><g clip-path="url(#F)"><path d="M57.07 152.602H7.203l39.181 19.443 10.685-19.443h.001zm140.625-.003h49.943l-39.257 19.443-10.686-19.443z" fill="#7a3b00"/><path d="M127.832 238.658c-1.627 0-3.178-.379-4.376-1.063l-8.919-5.115c-1.028-.592-2.782-.987-4.353-.987-.555 0-1.073.051-1.48.15l-10 2.395c-.572.133-1.157.199-1.744.198-2.487 0-5.096-1.047-6.647-2.662l-7.119-7.421c-1.144-1.196-3.702-2.364-5.363-2.446l-10.269-.516c-2.823-.145-6.054-2.22-7.356-4.725l-4.742-9.122c-.767-1.477-2.888-3.318-4.457-3.865l-9.703-3.394c-2.667-.928-5.184-3.834-5.725-6.606l-1.974-10.093c-.315-1.627-1.837-3.992-3.185-4.963l-8.355-5.985c-2.296-1.643-3.894-5.136-3.633-7.948l.948-10.239c.156-1.656-.64-4.353-1.662-5.66l-6.332-8.1c-1.745-2.225-2.292-6.026-1.245-8.651l3.794-9.554c.61-1.546.61-4.358 0-5.898l-3.794-9.558c-1.045-2.621-.494-6.427 1.243-8.651l6.334-8.102c1.022-1.307 1.813-4.003 1.662-5.66l-.948-10.237c-.262-2.814 1.337-6.305 3.633-7.955l8.361-5.992c1.349-.969 2.871-3.336 3.185-4.963l1.976-10.092c.547-2.778 3.056-5.677 5.722-6.607l9.711-3.393c1.569-.546 3.69-2.388 4.457-3.864l4.742-9.123c1.302-2.51 4.531-4.584 7.356-4.724l10.267-.517c1.656-.081 4.213-1.25 5.364-2.453l7.119-7.42c1.55-1.616 4.16-2.656 6.647-2.656.61 0 1.197.064 1.742.198l10 2.393c.486.107.983.158 1.482.152 1.568 0 3.324-.401 4.352-.988l8.92-5.112C124.666.377 126.217 0 127.844 0s3.173.378 4.37 1.063l8.92 5.12c1.027.593 2.782.987 4.351.987.498.007.995-.043 1.482-.151l10-2.395c.572-.132 1.157-.199 1.744-.198 2.486 0 5.095 1.041 6.641 2.656l7.119 7.42c1.149 1.197 3.707 2.366 5.362 2.453l10.269.517c2.823.145 6.049 2.22 7.356 4.724l4.735 9.123c.767 1.471 2.888 3.313 4.457 3.864l9.704 3.394c2.667.936 5.184 3.835 5.729 6.606l1.975 10.094c.32 1.627 1.838 3.992 3.191 4.963l8.357 5.991c2.301 1.645 3.898 5.143 3.631 7.955l-.941 10.232c-.157 1.65.633 4.353 1.655 5.66l6.334 8.1c1.744 2.225 2.29 6.031 1.243 8.652l-3.794 9.559c-.615 1.539-.615 4.353 0 5.898l3.794 9.558c1.047 2.627.501 6.426-1.243 8.653l-6.328 8.099c-1.023 1.308-1.813 4.004-1.661 5.659l.946 10.239c.262 2.812-1.335 6.305-3.631 7.955l-8.357 5.985c-1.347.971-2.87 3.336-3.183 4.963l-1.976 10.092c-.541 2.773-3.056 5.672-5.723 6.608l-9.71 3.394c-1.564.545-3.69 2.387-4.457 3.863l-4.736 9.122c-1.301 2.505-4.532 4.579-7.356 4.724l-10.267.518c-1.656.082-4.213 1.256-5.365 2.446l-7.117 7.42c-1.546 1.616-4.154 2.662-6.641 2.662-.61 0-1.197-.069-1.744-.198l-10-2.393a6.53 6.53 0 0 0-1.482-.152c-1.574 0-3.323.396-4.358.988l-8.936 5.096c-1.193.691-2.749 1.07-4.371 1.07z" fill="url(#A)"/><path d="M239.945 122.979c-.802-2.011-.802-5.306 0-7.317l3.788-9.559c.802-2.009.361-5.053-.971-6.756l-6.333-8.1c-1.33-1.708-2.261-4.864-2.063-7.02l.947-10.237c.203-2.156-1.074-4.952-2.835-6.213l-8.356-5.991c-1.761-1.261-3.539-4.027-3.958-6.153l-1.975-10.094c-.412-2.121-2.429-4.445-4.468-5.159l-9.71-3.394c-2.045-.715-4.533-2.87-5.532-4.793l-4.735-9.123c-.994-1.924-3.58-3.585-5.741-3.696l-10.269-.517c-2.161-.111-5.159-1.477-6.659-3.04l-7.117-7.42c-1.5-1.563-4.446-2.428-6.549-1.924l-10 2.395c-2.103.506-5.363.035-7.241-1.04l-8.919-5.113c-1.877-1.075-4.949-1.075-6.827 0l-8.919 5.113c-1.877 1.081-5.138 1.546-7.241 1.04l-10-2.395c-2.103-.504-5.055.361-6.555 1.924l-7.119 7.42c-1.498 1.563-4.491 2.929-6.652 3.04l-10.269.517c-2.161.111-4.746 1.772-5.74 3.696l-4.742 9.123c-.994 1.917-3.487 4.073-5.527 4.793l-9.703 3.394c-2.046.709-4.057 3.033-4.475 5.159l-1.976 10.094c-.414 2.126-2.197 4.892-3.958 6.153l-8.355 5.991c-1.761 1.261-3.039 4.057-2.835 6.211l.946 10.239c.198 2.156-.725 5.311-2.062 7.02l-6.334 8.1c-1.33 1.709-1.767 4.747-.971 6.757l3.788 9.56c.803 2.009.803 5.304 0 7.315l-3.788 9.559c-.796 2.01-.359 5.054.971 6.757l6.334 8.1c1.33 1.703 2.26 4.864 2.062 7.02l-.946 10.239c-.203 2.154 1.075 4.95 2.835 6.211l8.355 5.991c1.761 1.261 3.539 4.027 3.958 6.153l1.976 10.088c.412 2.126 2.428 4.445 4.475 5.159l9.703 3.394c2.046.715 4.533 2.871 5.532 4.793l4.742 9.123c.999 1.924 3.585 3.585 5.741 3.69l10.267.518c2.161.109 5.161 1.475 6.654 3.038l7.119 7.421c1.498 1.562 4.445 2.429 6.553 1.923l10.002-2.395c2.101-.504 5.362-.033 7.24 1.04l8.918 5.115c1.877 1.081 4.951 1.081 6.827 0l8.921-5.115c1.877-1.08 5.136-1.544 7.239-1.04l10 2.395c2.105.506 5.057-.361 6.55-1.923l7.118-7.421c1.499-1.563 4.491-2.929 6.659-3.038l10.267-.518c2.162-.11 4.747-1.773 5.741-3.69l4.737-9.123c.999-1.917 3.486-4.078 5.531-4.793l9.709-3.394c2.046-.714 4.056-3.038 4.47-5.159l1.975-10.088c.418-2.126 2.197-4.892 3.957-6.153l8.355-5.991c1.761-1.261 3.04-4.057 2.837-6.211l-.948-10.239c-.204-2.156.727-5.311 2.062-7.02l6.335-8.1c1.336-1.709 1.772-4.747.97-6.758l-3.794-9.559v.001z" fill="url(#B)"/><path d="M127.832 28.857c-49.966 0-90.466 40.502-90.466 90.468s40.502 90.466 90.468 90.466c49.96 0 90.467-40.5 90.467-90.468s-40.507-90.466-90.468-90.466zm0 145.942c-30.633 0-55.474-24.836-55.474-55.474s24.835-55.47 55.474-55.47 55.47 24.835 55.47 55.47-24.83 55.474-55.47 55.474z" fill="#000"/><path d="M35.71 150.614l-.575-1.848-1.935-.023 1.573-1.121-.574-1.848 1.551 1.156 1.574-1.121-.616 1.836 1.551 1.156-1.935-.024-.616 1.837zm-2.121-7.124l-.437-1.889-1.93-.168 1.662-.994-.43-1.883 1.459 1.268 1.661-.994-.761 1.778 1.459 1.273-1.929-.17-.755 1.779zm-1.576-7.276l-.285-1.912-1.912-.318 1.732-.867-.285-1.912 1.354 1.378 1.732-.866-.895 1.72 1.36 1.383-1.912-.32-.89 1.714zm-1.01-7.362l-.14-1.929-1.877-.465 1.795-.725-.14-1.93 1.243 1.476 1.795-.726-1.022 1.644 1.243 1.482-1.877-.465-1.022 1.639v-.001zm-.437-7.413l.012-1.937-1.836-.61 1.841-.585.012-1.935 1.127 1.568 1.841-.587-1.144 1.557 1.128 1.575-1.837-.604-1.144 1.558zm.129-7.432l.156-1.924-1.783-.75 1.882-.448.157-1.928 1.005 1.651 1.883-.448-1.261 1.47 1.005 1.655-1.79-.749-1.254 1.471zm.692-7.398l.301-1.912-1.726-.877 1.912-.303.302-1.912.877 1.727 1.912-.303-1.371 1.367.877 1.725-1.726-.878-1.36 1.366h.001zm1.254-7.309l.447-1.885-1.65-1.003 1.93-.157.447-1.883.75 1.784 1.928-.157-1.47 1.261.75 1.79-1.656-1.005-1.477 1.254v.001zm1.807-7.218l.587-1.843-1.569-1.127 1.935-.012.586-1.841.61 1.836 1.936-.011-1.563 1.144.603 1.836-1.569-1.133-1.557 1.151zm2.347-7.043l.727-1.79-1.482-1.243 1.929.133.725-1.79.472 1.878 1.928.14-1.643 1.022.464 1.877-1.481-1.243-1.639 1.017zm2.876-6.857l.861-1.731-1.383-1.353 1.912.285.86-1.731.32 1.905 1.917.285-1.715.895.32 1.912-1.383-1.355-1.709.889zm3.389-6.606l.994-1.662-1.273-1.459 1.889.43.994-1.661.173 1.929 1.889.43-1.778.761.174 1.93-1.272-1.459-1.79.762zm3.893-6.34l1.116-1.58-1.162-1.553 1.847.57 1.116-1.58.03 1.935 1.847.575-1.831.622.024 1.939-1.157-1.55-1.831.621zm4.358-6.013l1.233-1.488-1.035-1.633 1.795.715 1.233-1.487-.122 1.928 1.801.715-1.877.477-.122 1.935-1.035-1.633-1.871.471zm4.811-5.665l1.349-1.39-.907-1.709 1.737.849 1.342-1.389-.267 1.912 1.744.854-1.912.336-.267 1.919-.907-1.708-1.912.325zm5.242-5.288l1.447-1.284-.773-1.772 1.668.982 1.447-1.284-.412 1.889 1.668.982-1.924.186-.419 1.889-.773-1.772-1.928.186zm5.607-4.846l1.54-1.167-.633-1.825 1.586 1.104 1.539-1.167-.557 1.853 1.586 1.104-1.935.041-.559 1.854-.639-1.831-1.93.035zm5.98-4.422l1.627-1.047-.493-1.871 1.498 1.227 1.627-1.047-.697 1.802 1.498 1.226-1.928-.111-.704 1.808-.494-1.871-1.935-.115zm6.281-3.946l1.703-.918-.354-1.906 1.406 1.331 1.696-.925-.831 1.749 1.401 1.33-1.917-.25-.837 1.749-.349-1.906-1.919-.255zm6.584-3.468l1.765-.791-.209-1.924 1.296 1.436 1.767-.791-.959 1.679 1.302 1.436-1.896-.395-.963 1.679-.21-1.923-1.894-.407zm6.815-2.959l1.82-.656-.058-1.935 1.185 1.528 1.82-.656-1.087 1.597 1.185 1.528-1.858-.54-1.094 1.604-.064-1.935-1.847-.536h-.001zm7.009-2.428l1.865-.511.093-1.935 1.063 1.615 1.866-.511-1.209 1.517 1.064 1.614-1.813-.685-1.209 1.511.088-1.935-1.808-.679zm7.2-1.883l1.899-.366.238-1.923.936 1.691 1.901-.366-1.319 1.418.935 1.691-1.754-.819-1.326 1.41.238-1.916-1.749-.82h.001zm7.321-1.325l1.923-.221.384-1.893.802 1.76 1.923-.221-1.424 1.307.808 1.761-1.685-.953-1.429 1.307.384-1.894-1.686-.953zm7.386-.755l1.928-.069.529-1.86.668 1.82 1.935-.071-1.522 1.197.668 1.82-1.609-1.081-1.523 1.196.529-1.859-1.603-1.093zm7.43-.191l1.937.076.667-1.814.529 1.866 1.929.076-1.609 1.075.528 1.864-1.522-1.203-1.61 1.075.669-1.813-1.516-1.203h-.002zm7.411.377l1.922.221.808-1.755.384 1.894 1.923.221-1.685.953.383 1.894-1.429-1.307-1.685.952.801-1.76-1.422-1.314zm7.366.942l1.901.366.936-1.698.237 1.924 1.895.366-1.748.824.237 1.919-1.325-1.413-1.754.819.935-1.696-1.314-1.412zm7.282 1.498l1.866.511 1.063-1.62.092 1.93 1.866.511-1.813.685.093 1.935-1.209-1.511-1.813.686 1.063-1.616-1.208-1.51zm7.152 2.052l1.82.651 1.185-1.528-.058 1.935 1.818.651-1.853.547-.057 1.935-1.093-1.599-1.859.547 1.185-1.534-1.088-1.604zm6.962 2.58l1.766.791 1.297-1.441-.204 1.923 1.766.785-1.888.401-.203 1.923-.971-1.673-1.894.4 1.296-1.44-.965-1.668zm6.747 3.108l1.702.918 1.4-1.329-.348 1.898 1.703.919-1.919.255-.348 1.906-.837-1.744-1.917.256 1.4-1.337-.836-1.744zm6.502 3.615l1.627 1.045 1.499-1.22-.495 1.871 1.628 1.047-1.93.11-.494 1.871-.702-1.802-1.929.111 1.499-1.226-.703-1.807zm6.193 4.096l1.541 1.167 1.586-1.104-.633 1.825 1.539 1.167-1.935-.041-.633 1.831-.557-1.854-1.935-.041 1.586-1.104-.559-1.848zm5.864 4.561l1.446 1.284 1.668-.982-.773 1.772 1.447 1.284-1.923-.186-.773 1.772-.419-1.894-1.922-.191 1.668-.976-.419-1.883zm5.509 5.003l1.342 1.389 1.737-.849-.907 1.709 1.342 1.395-1.899-.338-.913 1.709-.267-1.917-1.912-.336 1.738-.849-.261-1.912zm5.09 5.403l1.231 1.494 1.802-.715-1.04 1.633 1.231 1.488-1.871-.477-1.035 1.634-.122-1.929-1.876-.483 1.802-.709-.122-1.935zm4.671 5.788l1.116 1.58 1.848-.575-1.156 1.551 1.115 1.581-1.83-.622-1.162 1.552.023-1.936-1.836-.621 1.847-.575.035-1.935zm4.19 6.113l.999 1.656 1.884-.441-1.268 1.464.999 1.654-1.783-.749-1.266 1.464.162-1.929-1.784-.75 1.882-.441.175-1.929zm3.753 6.42l.867 1.731 1.911-.29-1.377 1.36.866 1.731-1.715-.889-1.376 1.36.313-1.912-1.719-.889 1.911-.29.319-1.912zm3.249 6.682l.732 1.79 1.93-.145-1.477 1.25.732 1.79-1.645-1.017-1.475 1.248.459-1.882-1.644-1.022 1.928-.145.46-1.866zm2.725 6.91l.593 1.841 1.935.005-1.569 1.134.593 1.843-1.564-1.139-1.569 1.132.605-1.841-1.563-1.144 1.935.005.604-1.836zm2.19 7.094l.448 1.883 1.929.156-1.65 1.012.447 1.882-1.469-1.254-1.651 1.011.743-1.79-1.469-1.261 1.929.15.743-1.79zm1.64 7.252l.302 1.912 1.912.302-1.726.877.302 1.912-1.365-1.365-1.726.877.877-1.726-1.371-1.366 1.91.303.885-1.726zm1.075 7.357l.156 1.923 1.883.447-1.784.745.157 1.928-1.261-1.465-1.784.745 1.006-1.65-1.261-1.47 1.882.447 1.006-1.65zm.504 7.409l.007 1.935 1.841.592-1.836.604.006 1.935-1.145-1.557-1.836.605 1.134-1.576-1.146-1.563 1.843.594 1.132-1.569zm-.057 7.437l-.139 1.93 1.795.732-1.877.458-.139 1.93-1.023-1.645-1.878.465 1.25-1.482-1.022-1.645 1.788.732 1.245-1.475zm-.628 7.404l-.284 1.911 1.731.865-1.912.32-.284 1.911-.895-1.714-1.907.32 1.36-1.383-.895-1.719 1.732.865 1.354-1.376zm-1.191 7.326l-.43 1.888 1.662.994-1.929.168-.43 1.889-.762-1.777-1.928.173 1.457-1.272-.76-1.779 1.662.994 1.458-1.278zm-1.743 7.228l-.569 1.848 1.579 1.116-1.935.023-.574 1.848-.623-1.83-1.935.023 1.553-1.157-.623-1.836 1.581 1.116 1.546-1.151zm-2.285 7.06l-.707 1.803 1.493 1.231-1.93-.122-.709 1.802-.481-1.871-1.93-.123 1.633-1.034-.483-1.877 1.494 1.231 1.62-1.04zm-2.812 6.88l-.847 1.737 1.394 1.343-1.918-.267-.842 1.738-.343-1.906-1.917-.268 1.707-.907-.336-1.905 1.394 1.343 1.708-.908zm-3.334 6.654l-.976 1.673 1.289 1.447-1.894-.412-.976 1.668-.191-1.924-1.896-.413 1.773-.778-.192-1.929 1.284 1.446 1.779-.778zm-3.836 6.369l-1.104 1.592 1.175 1.539-1.854-.558-1.098 1.592-.048-1.935-1.853-.557 1.83-.64-.04-1.935 1.174 1.54 1.818-.638zm-4.3 6.054l-1.22 1.5 1.052 1.62-1.807-.697-1.221 1.5.105-1.93-1.808-.697 1.872-.5.104-1.935 1.052 1.622 1.871-.483zm-4.764 5.713l-1.331 1.406.924 1.696-1.749-.837-1.33 1.407.249-1.918-1.744-.831 1.907-.354.256-1.919.923 1.704 1.895-.354zm-5.177 5.316l-1.436 1.295.79 1.767-1.673-.964-1.436 1.295.401-1.888-1.673-.965 1.923-.203.401-1.895.791 1.767 1.912-.209zm-5.585 4.916l-1.529 1.179.651 1.818-1.597-1.091-1.528 1.18.54-1.854-1.598-1.093 1.935-.058.547-1.859.65 1.824 1.929-.046zm-5.933 4.469l-1.615 1.063.512 1.864-1.511-1.208-1.616 1.063.681-1.813-1.512-1.208 1.935.092.68-1.813.511 1.866 1.935.094zm-6.257 4.002l-1.691.941.366 1.901-1.418-1.319-1.691.941.813-1.754-1.412-1.32 1.918.239.819-1.755.366 1.9 1.93.226zm-6.526 3.522l-1.755.808.226 1.923-1.312-1.424-1.761.808.947-1.685-1.314-1.424 1.9.378.948-1.685.226 1.924 1.895.377zm-6.799 3.022l-1.813.667.076 1.935-1.197-1.516-1.813.674 1.07-1.609-1.198-1.523 1.865.523 1.075-1.609.076 1.935 1.859.523zm-6.995 2.492l-1.866.529-.069 1.935-1.082-1.609-1.859.528 1.192-1.522-1.081-1.61 1.818.669 1.191-1.523-.069 1.935 1.825.668zm-7.177 1.947l-1.894.383-.222 1.924-.953-1.686-1.899.384 1.307-1.429-.952-1.685 1.76.801 1.307-1.424-.221 1.924 1.767.808zm-7.292 1.389l-1.918.239-.366 1.899-.819-1.754-1.924.237 1.412-1.318-.819-1.756 1.697.936 1.412-1.318-.366 1.899 1.691.936zm-7.386.824l-1.935.088-.511 1.865-.68-1.813-1.935.087 1.511-1.208-.686-1.813 1.622 1.063 1.51-1.208-.511 1.865 1.615 1.074zm-7.431.257l-1.936-.059-.651 1.819-.546-1.859-1.935-.059 1.598-1.091-.546-1.861 1.534 1.186 1.598-1.092-.651 1.818 1.534 1.198h.001zm-7.415-.308l-1.923-.204-.791 1.767-.401-1.894-1.923-.203 1.674-.971-.402-1.895 1.436 1.295 1.679-.964-.791 1.767 1.442 1.302zm-7.397-.884l-1.901-.349-.923 1.703-.257-1.917-1.898-.348 1.742-.837-.256-1.919 1.33 1.406 1.749-.836-.918 1.703 1.332 1.394zm-7.276-1.429l-1.871-.494-1.044 1.627-.106-1.929-1.871-.494 1.802-.704-.106-1.935 1.227 1.5 1.806-.704-1.045 1.627 1.208 1.506zm-7.17-1.981l-1.824-.634-1.169 1.539.041-1.935-1.824-.633 1.847-.563.041-1.934 1.111 1.585 1.853-.558-1.167 1.546 1.091 1.587zm-6.983-2.522l-1.773-.773-1.284 1.446.186-1.922-1.772-.773 1.889-.419.186-1.93.982 1.675 1.889-.419-1.284 1.447.982 1.668h.001zm-6.77-3.046l-1.714-.906-1.39 1.348.332-1.905-1.709-.907 1.912-.273.331-1.906.854 1.737 1.917-.273-1.388 1.348.854 1.737zM78 202.864l-1.633-1.029-1.487 1.238.476-1.877-1.638-1.035 1.928-.127.477-1.871.715 1.801 1.935-.128-1.487 1.238.715 1.79zm-6.241-4.04l-1.551-1.155-1.574 1.122.616-1.836-1.551-1.157 1.935.018.616-1.831.575 1.847 1.936.024-1.581 1.122.58 1.846zm-5.904-4.503l-1.458-1.271-1.662.993.755-1.784-1.458-1.266 1.923.168.755-1.778.437 1.888 1.928.175-1.661.993.441 1.882zm-5.543-4.955l-1.353-1.378-1.731.866.895-1.714-1.355-1.377 1.907.32.888-1.721.291 1.917 1.912.32-1.733.867.279 1.9zm-5.142-5.365l-1.25-1.475-1.79.727 1.024-1.639-1.25-1.482 1.877.465 1.024-1.645.138 1.929 1.878.466-1.797.726.146 1.928zm-4.719-5.734l-1.134-1.569-1.841.593 1.144-1.563-1.134-1.569 1.837.604 1.144-1.563-.007 1.935 1.843.605-1.843.592-.011 1.935zm-4.271-6.084l-1.005-1.65-1.883.447 1.261-1.469-1.005-1.651 1.783.743 1.256-1.469-.157 1.929 1.79.743-1.882.448-.157 1.929zm-3.801-6.392l-.877-1.719-1.912.308 1.367-1.372-.884-1.72 1.726.872 1.365-1.372-.302 1.912 1.726.877-1.912.308-.297 1.906zm-3.3-6.648l-.75-1.783-1.928.157 1.464-1.261-.75-1.784 1.656.999 1.464-1.266-.442 1.882 1.657 1.006-1.929.163-.442 1.887z" fill="url(#C)"/><path d="M247.638 87.113H7.203v65.493h240.435V87.115v-.001z" fill="url(#D)"/><path d="M254.035 120.095c0 18.401-6.397 30.064-6.397 30.064H7.203S.88 138.445.88 119.902c0-15.444 6.323-30.343 6.323-30.343h240.435c0-.005 6.397 16.781 6.397 30.536z" fill="url(#E)"/><path d="M134.3 72.983l-3.446 3.353.825 4.742-4.265-2.243-4.253 2.243.813-4.742-3.44-3.353 4.76-.685 2.12-4.317 2.133 4.317 4.753.685zm11.993 3.41l-1.65-3.352-1.65 3.353-3.702.534 2.674 2.609-.635 3.684 3.313-1.742 3.312 1.742-.64-3.684 2.68-2.609-3.702-.534v-.001zm-34.446.199l-1.656-3.359-1.65 3.359-3.696.529 2.667 2.608-.626 3.689 3.305-1.744 3.313 1.744-.64-3.689 2.679-2.609-3.696-.529v.001zm8.687 89.072l3.451-3.359-.824-4.736 4.259 2.243 4.259-2.243-.814 4.736 3.435 3.359-4.753.685-2.127 4.317-2.126-4.317-4.76-.685zm-11.993-3.412l1.65 3.354 1.656-3.354 3.696-.534-2.667-2.609.628-3.684-3.313 1.744-3.305-1.744.638 3.684-2.679 2.609 3.696.534zm34.452-.196l1.65 3.358 1.655-3.358 3.697-.534-2.673-2.611.633-3.684-3.312 1.744-3.313-1.744.64 3.684-2.679 2.611 3.702.534z" fill="#000"/><path d="M91.73 170.133l-17.205 13.776-4.683-4.712c1.958-2.806 4.294-5.886 7.008-9.244-1.451 1.149-4.521 3.498-9.193 7.053l-4.659-4.683 13.852-17.142 3.65 3.666-5.021 5.794-4.857 5.596c2.847-2.557 6.746-5.746 11.696-9.564l3.898 3.916c-.4.505-1.976 2.341-4.712 5.509l-5.497 6.298c3.898-3.462 7.928-6.773 12.081-9.924l3.642 3.661zm9.832 4.822l-7.837 20.686-4.773-2.609 1.641-3.592-1.668-.911-2.168 3.3-4.828-2.638 12.895-17.926 6.739 3.69zm-9.234 11.011l3.702-8.466c-2.487 3.422-4.258 5.95-5.31 7.582l1.609.884h-.001zm13.36-9.053l3.626 1.01c2.418.674 4.027 1.232 4.829 1.674s1.354 1.145 1.667 2.114c.308.971.216 2.36-.29 4.155-.459 1.645-.958 2.691-1.499 3.15s-1.384.587-2.54.389c.942.552 1.523 1.104 1.744 1.657s.325 1.022.302 1.429c-.018.401-.267 1.452-.744 3.155l-1.557 5.566-4.759-1.33 1.958-7.014c.314-1.127.429-1.854.337-2.167s-.488-.575-1.197-.773l-2.662 9.517-5.125-1.434 5.91-21.098zm4.114 5.042l-1.314 4.696c.577.163 1.006.191 1.284.087s.547-.621.809-1.552l.325-1.162c.186-.668.198-1.139.035-1.411-.168-.274-.546-.495-1.139-.658zm10.023-1.434l3.766.127c2.51.087 4.207.244 5.084.483.883.237 1.587.79 2.121 1.661s.768 2.244.704 4.108c-.058 1.703-.297 2.842-.709 3.417-.419.575-1.21.895-2.372.977 1.047.313 1.738.714 2.087 1.197s.557.918.633 1.312.082 1.477.023 3.242l-.198 5.777-4.938-.168.249-7.275c.041-1.174-.023-1.901-.185-2.186s-.61-.44-1.343-.465l-.337 9.873-5.316-.181.733-21.899h-.002zm5.189 3.928l-.168 4.869c.598.023 1.023-.053 1.267-.221s.383-.732.419-1.696l.04-1.203c.023-.698-.076-1.157-.302-1.378-.221-.226-.64-.348-1.256-.371zm18.386-5.589l7.258 20.895-5.334 1.057-1.047-3.806-1.865.373.453 3.928-5.398 1.069-1.609-22.022 7.542-1.494zm-.024 14.37a275.72 275.72 0 0 1-2.585-8.868c.284 4.22.552 7.299.79 9.229l1.795-.361zm15.271-20.425l9.047 19.954-4.247 1.924-6.636-7.932 4.114 9.071-4.05 1.836-9.047-19.954 4.049-1.836 6.793 7.751-4.073-8.983 4.05-1.831zm10.849-7.937l2.637 3.504-2.522 1.899 10.541 14.004-4.253 3.202-10.54-13.998-2.517 1.895-2.638-3.504 9.292-7.002zm9.11-10.355l8.101 12.033 6.026 5.154-3.207 3.748-6.026-5.154-13.058-6.247 3.179-3.712c3.747 2.202 6.218 3.742 7.403 4.632-1.586-1.744-3.452-3.993-5.596-6.742l3.178-3.712zM75.542 53.837L89.61 70.804l-4.671 4.818c-2.847-1.9-5.974-4.178-9.384-6.827 1.173 1.435 3.573 4.457 7.205 9.077l-4.643 4.793-17.41-13.521 3.638-3.748 5.886 4.915 5.69 4.747c-2.609-2.807-5.863-6.647-9.763-11.533l3.887-4.009c.511.395 2.377 1.929 5.596 4.607l6.397 5.375c-3.533-3.836-6.914-7.81-10.134-11.912l3.638-3.748zm14.846-8.827l13.417 17.596-4.787 2.69-2.18-3.295-1.673.941 1.65 3.59-4.846 2.725-8.344-20.442 6.763-3.806zm4.423 13.673c-1.785-2.512-3.526-5.054-5.224-7.624 1.581 3.928 2.784 6.77 3.608 8.53l1.616-.906zm4.48-17.676l3.661-1.045c2.441-.698 4.119-1.07 5.037-1.116s1.767.262 2.545.923 1.424 1.894 1.935 3.69c.465 1.639.587 2.796.366 3.47s-.882 1.226-1.982 1.662c1.098-.024 1.889.138 2.372.488s.819.702 1.011 1.058.534 1.376 1.017 3.078l1.586 5.555-4.8 1.372-1.998-7.002c-.32-1.127-.605-1.802-.849-2.022s-.72-.233-1.436-.03l2.715 9.501-5.172 1.475-6.008-21.058zm6.199 2.133l1.337 4.683c.581-.169.964-.366 1.15-.605s.145-.819-.122-1.742l-.331-1.157c-.191-.669-.43-1.075-.714-1.22s-.722-.129-1.32.041zm13.278-6.673l3.8-.138c2.533-.094 4.254-.053 5.16.122s1.657.679 2.255 1.511.93 2.179.999 4.043c.064 1.703-.099 2.86-.476 3.458s-1.151.982-2.324 1.139c1.074.244 1.801.587 2.183 1.047.385.453.629.877.728 1.267.104.389.186 1.47.255 3.237l.209 5.776-4.99.179-.269-7.275c-.04-1.174-.157-1.894-.343-2.167s-.644-.396-1.388-.366l.361 9.871-5.37.198-.79-21.9v-.001zm5.509 3.551l.18 4.869c.604-.023 1.023-.127 1.261-.308.237-.186.336-.762.301-1.726l-.046-1.203c-.023-.691-.157-1.144-.401-1.353s-.678-.302-1.295-.279zm23.341-1.528l-1.22 22.092-5.393-1.064.477-3.921-1.889-.371-1.08 3.799-5.451-1.074 6.921-20.971 7.635 1.511zm-5.52 13.272c.215-2.488.534-5.55.976-9.188-1.348 4.01-2.278 6.956-2.789 8.833l1.813.355zm25.799-5.539l-9.123 19.925-4.282-1.963 1.605-10.221-4.15 9.058-4.085-1.871 9.123-19.924 4.085 1.871-1.365 10.228 4.108-8.972 4.084 1.871v-.001zm15.108 10.641l-2.667 3.481-2.533-1.942-10.658 13.912-4.264-3.266 10.656-13.912-2.52-1.934 2.667-3.481 9.319 7.142zm12.552 13.84l-13.226 5.99-6.072 5.102-3.201-3.812 6.072-5.102 8.274-11.889 3.178 3.783c-2.777 3.341-4.7 5.527-5.769 6.555 1.981-1.279 4.503-2.743 7.576-4.409l3.168 3.783v-.001z" fill="#fff"/><path d="M38.72 99.84v33.022h7.344v8.263H26.639V99.84H38.72zm23.532 0v41.285h-12.08V99.84h12.081-.001zm6.02 0h20.461v8.263h-8.38v7.827h7.46v7.856h-7.462v17.339h-12.08V99.84zm24.563 0h20.145v8.263h-8.065v7.827h7.549v7.856h-7.549v9.076h8.868v8.263H92.834V99.84h.001zm49.158 0v8.263h-7.177v33.022h-12.08v-33.022h-7.145V99.84h26.402zm16.008 0v41.285h-12.08V99.84h12.08zm43.297 0v41.285h-10.559l-.011-27.875-4.202 27.875h-7.49l-4.432-27.235-.013 27.235h-10.557V99.84h15.63l1.436 8.78 1.714 10.5 2.777-19.281h15.707v.001zm6.026 0h20.145v8.263h-8.065v7.827h7.548v7.856h-7.548v9.076h8.867v8.263h-20.947V99.84z" fill="#000"/></g><defs><linearGradient id="A" x1="168.574" y1="7.388" x2="87.093" y2="231.256" xlink:href="#G"><stop stop-color="#f5b047"/><stop offset="1" stop-color="#ffcf6e"/></linearGradient><linearGradient id="B" x1="167.915" y1="229.446" x2="87.751" y2="9.2" xlink:href="#G"><stop stop-color="#de6e00"/><stop offset="1" stop-color="#ffeb91"/></linearGradient><linearGradient id="C" x1="161.726" y1="212.415" x2="93.947" y2="26.198" xlink:href="#G"><stop stop-color="#ffe672"/><stop offset=".616" stop-color="#eda117"/></linearGradient><linearGradient id="D" x1="7.201" y1="119.856" x2="247.638" y2="119.856" xlink:href="#G"><stop stop-color="#b86300"/><stop offset=".335" stop-color="#de8a00"/><stop offset=".758" stop-color="#ffffba"/><stop offset="1" stop-color="#b86300"/></linearGradient><linearGradient id="E" x1=".88" y1="119.856" x2="254.033" y2="119.856" xlink:href="#G"><stop stop-color="#f5b536"/><stop offset=".44" stop-color="#ffeb87"/><stop offset=".582" stop-color="#ffeb87"/><stop offset="1" stop-color="#f5b536"/></linearGradient><clipPath id="F"><path fill="#fff" d="M0 0h254.916v240H0z"/></clipPath><linearGradient id="G" gradientUnits="userSpaceOnUse"/></defs></svg>